<?xml version="1.0" standalone="no"?>
<!DOCTYPE svg PUBLIC "-//W3C//DTD SVG 20010904//EN"
 "http://www.w3.org/TR/2001/REC-SVG-20010904/DTD/svg10.dtd">
<svg class="" version="1.0" xmlns="http://www.w3.org/2000/svg"
 width="1025.000000pt" height="842.000000pt" viewBox="0 0 1025.000000 842.000000"
 preserveAspectRatio="xMidYMid meet">
<metadata>
Created by potrace 1.13, written by Peter Selinger 2001-2015
</metadata>
<g transform="translate(0.000000,842.000000) scale(0.100000,-0.100000)"
fill="#000000" stroke="none">
<path class="icon" d="M952 7679 c-111 -19 -171 -70 -204 -173 -14 -44 -28 -616 -17 -704
20 -167 95 -251 249 -284 97 -20 8563 -20 8660 0 85 18 130 42 173 93 75 86
83 165 70 609 -8 249 -11 280 -30 323 -28 60 -75 103 -138 125 -47 16 -315 17
-4380 18 -2474 1 -4353 -2 -4383 -7z"/>
<path class="icon" d="M1035 4659 c-129 -18 -184 -59 -235 -174 -41 -89 -60 -180 -70 -325
-19 -292 21 -536 110 -665 51 -74 106 -95 288 -106 89 -6 1787 -8 4302 -6
3327 2 4164 6 4202 16 121 32 191 129 236 326 12 53 16 125 16 300 0 243 -7
304 -53 426 -52 137 -118 190 -261 209 -94 12 -8449 11 -8535 -1z"/>
<path class="icon" d="M1005 1539 c-168 -22 -253 -109 -274 -281 -5 -41 -6 -207 -1 -378 8
-322 12 -353 61 -421 23 -32 84 -67 139 -80 19 -5 1990 -9 4380 -9 4872 0
4415 -8 4496 74 67 66 72 99 79 474 8 413 -1 463 -99 549 -49 43 -86 57 -191
73 -89 12 -8489 11 -8590 -1z"/>
</g>
</svg>
