<?xml version="1.0" standalone="no"?>
<!DOCTYPE svg PUBLIC "-//W3C//DTD SVG 20010904//EN"
 "http://www.w3.org/TR/2001/REC-SVG-20010904/DTD/svg10.dtd">
<svg version="1.0" xmlns="http://www.w3.org/2000/svg"
 width="171.000000pt" height="171.000000pt" viewBox="0 0 171.000000 171.000000"
 preserveAspectRatio="xMidYMid meet">
<metadata>
Created by potrace 1.13, written by Peter Selinger 2001-2015
</metadata>
<g transform="translate(0.000000,171.000000) scale(0.100000,-0.100000)"
fill="#000000" stroke="none">
<path d="M685 1571 c-28 -5 -68 -17 -90 -28 -22 -11 -55 -24 -73 -28 -18 -4
-45 -17 -60 -29 -15 -12 -44 -33 -65 -45 -33 -20 -89 -82 -165 -180 -12 -17
-31 -54 -41 -83 -11 -29 -27 -69 -38 -88 -15 -29 -18 -58 -18 -180 0 -137 1
-148 27 -200 15 -30 32 -72 38 -92 6 -20 18 -42 26 -49 9 -7 22 -26 31 -43 13
-27 52 -74 88 -106 48 -44 90 -73 131 -92 27 -11 60 -30 74 -40 39 -28 231
-44 360 -30 81 8 110 16 154 41 87 50 93 48 236 -94 159 -157 156 -156 264
-50 42 42 76 78 76 81 0 28 -47 88 -144 184 -132 131 -135 139 -86 225 64 111
67 428 5 518 -12 18 -26 47 -32 64 -22 61 -141 196 -199 226 -17 9 -36 23 -43
31 -8 9 -34 22 -60 30 -25 8 -68 24 -95 36 -55 25 -210 35 -301 21z m290 -217
c17 -12 47 -29 67 -37 45 -19 132 -105 172 -172 72 -118 72 -353 0 -469 -31
-52 -127 -156 -143 -156 -5 0 -23 -12 -40 -26 -23 -19 -54 -29 -125 -42 -82
-14 -107 -14 -188 -3 -51 7 -102 18 -114 24 -70 40 -94 57 -141 103 -29 28
-60 68 -68 89 -9 21 -26 51 -38 67 -20 27 -22 41 -22 178 0 137 2 151 22 178
12 16 28 45 36 63 19 45 123 147 167 166 19 8 42 22 51 30 30 26 72 32 204 30
115 -2 134 -5 160 -23z"/>
</g>
</svg>
